<?xml version="1.0" standalone="no"?>
<!DOCTYPE svg PUBLIC "-//W3C//DTD SVG 1.1//EN" "http://www.w3.org/Graphics/SVG/1.1/DTD/svg11.dtd" >
<!--
2013-9-30: Created.
-->
<svg>
<metadata>
Created by iconfont
</metadata>
<defs>

<font id="iconfont" horiz-adv-x="1024" >
  <font-face
    font-family="iconfont"
    font-weight="500"
    font-stretch="normal"
    units-per-em="1024"
    ascent="896"
    descent="-128"
  />
    <missing-glyph />
    
    <glyph glyph-name="x" unicode="x" horiz-adv-x="1001"
d="M281 543q-27 -1 -53 -1h-83q-18 0 -36.5 -6t-32.5 -18.5t-23 -32t-9 -45.5v-76h912v41q0 16 -0.5 30t-0.5 18q0 13 -5 29t-17 29.5t-31.5 22.5t-49.5 9h-133v-97h-438v97zM955 310v-52q0 -23 0.5 -52t0.5 -58t-10.5 -47.5t-26 -30t-33 -16t-31.5 -4.5q-14 -1 -29.5 -0.5
t-29.5 0.5h-32l-45 128h-439l-44 -128h-29h-34q-20 0 -45 1q-25 0 -41 9.5t-25.5 23t-13.5 29.5t-4 30v167h911zM163 247q-12 0 -21 -8.5t-9 -21.5t9 -21.5t21 -8.5q13 0 22 8.5t9 21.5t-9 21.5t-22 8.5zM316 123q-8 -26 -14 -48q-5 -19 -10.5 -37t-7.5 -25t-3 -15t1 -14.5
t9.5 -10.5t21.5 -4h37h67h81h80h64h36q23 0 34 12t2 38q-5 13 -9.5 30.5t-9.5 34.5q-5 19 -11 39h-368zM336 498v228q0 11 2.5 23t10 21.5t20.5 15.5t34 6h188q31 0 51.5 -14.5t20.5 -52.5v-227h-327z" />
    

    
    <glyph glyph-name="msnui-foresight" unicode="&#59249;" d="M918.188 341.979h-44.646c-19.259-167.487-152.058-300.177-319.523-319.479v-44.69c0-23.198-18.822-42.020-42.020-42.020s-42.020 18.822-42.020 42.020v44.69c-167.464 19.304-300.263 151.994-319.522 319.479h-44.646c-23.198 0-42.020 18.822-42.020 42.020 0 23.22 18.822 42.020 42.020 42.020h44.69c19.303 167.465 151.993 300.265 319.479 319.546v44.623c0 23.198 18.822 42.020 42.020 42.020s42.020-18.822 42.020-42.020v-44.69c167.465-19.303 300.265-151.993 319.523-319.479h44.646c23.198 0 42.020-18.799 42.020-42.020-0.001-23.198-18.823-42.020-42.021-42.020zM708.091 426.019h80.537c-18.23 120.981-113.671 216.445-234.609 234.696v-80.625c0-23.198-18.822-42.020-42.020-42.020s-42.020 18.822-42.020 42.020v80.56c-120.981-18.253-216.445-113.693-234.696-234.631h80.625c23.198 0 42.020-18.799 42.020-42.020 0-23.198-18.822-42.020-42.020-42.020h-80.537c18.254-120.98 113.673-216.444 234.609-234.695v80.624c0 23.22 18.822 42.020 42.020 42.020s42.020-18.799 42.020-42.020v-80.624c120.938 18.252 216.378 113.715 234.609 234.696l-80.538-0c-23.198 0-42.020 18.822-42.020 42.020-0 23.22 18.822 42.019 42.020 42.019zM511.999 341.979c-23.198 0-42.020 18.822-42.020 42.020 0 23.22 18.822 42.020 42.020 42.020s42.020-18.799 42.020-42.020c-0.001-23.198-18.822-42.020-42.020-42.020z"  horiz-adv-x="1024" />

    
    <glyph glyph-name="location" unicode="&#58910;" d="M511.998 832.486c-200.688 0-363.371-150.581-363.371-336.355 0-280.296 302.807-560.618 363.371-560.618 60.567 0 363.373 280.322 363.373 560.618 0 185.774-162.684 336.355-363.373 336.355zM511.998 294.304c-100.343 0-181.697 80.316-181.697 179.394s81.354 179.394 181.697 179.394c100.345 0 181.674-80.316 181.674-179.394s-81.329-179.394-181.674-179.394z"  horiz-adv-x="1024" />

    
    <glyph glyph-name="wode1" unicode="&#58921;" d="M938.01835 99.121336 712.012723 187.195684C712.012723 187.195684 668.92842 203.931259 652.180782 220.389412 641.421768 230.967501 642.193715 255.923108 651.716408 287.802112 661.239101 319.681121 777.091487 449.217475 777.091487 566.891172 777.091487 748.654582 657.620598 896 510.245028 896 362.875484 896 243.404595 748.654582 243.404595 566.891172 243.404595 454.186885 346.63444 319.819827 359.383629 295.40097 372.138849 270.976077 369.03297 233.765811 358.973532 222.482115 343.860255 205.535462 288.629847 188.564685 288.629847 188.564685L84.890066 97.752335C37.288668 80.660941 0 35.767388 0-14.885617L0-38.900408C0-94.179062 44.893553-127.993969 100.069683-127.993969L441.7709-127.993969 558.89579-127.993969 922.844764-127.993969C978.020895-127.993969 1022.908416-94.179062 1022.908416-38.900408L1022.908416-14.885617C1022.908416 35.767388 985.625784 82.035973 938.01835 99.121336"  horiz-adv-x="1024" />

    
    <glyph glyph-name="1" unicode="&#58884;" d="M381.311215 284.563548l130.13619 0 0-32.019827-130.13619 0 0 32.019827ZM381.311215 460.687946l130.13619 0 0-33.022685-130.13619 0 0 33.022685ZM381.311215 372.62063l130.13619 0 0-32.019827-130.13619 0 0 32.019827ZM380.308356 520.726401q0-6.006915 6.006915-6.006915L511.447405 514.719485 511.447405 547.752403 380.308356 547.752403l0-27.01577ZM762.929427 896 261.070573 896C117.477665 896 0.020466 778.522335 0.020466 634.929427L0.020466 133.070573c0-143.592909 117.477665-261.070573 261.070573-261.070573L762.929427-128c143.582675 0 261.070573 117.477665 261.070573 261.070573L1024 634.929427C1024 778.522335 906.512102 896 762.929427 896Zm10.796075-752.542682q-3.008574-9.005257-12.013831-11.010973L269.154838 132.446345q-10.018348 0-14.019547 4.001199-8.022865 6.989307-5.004057 17.017888t13.016689 11.010973l19.023604 0L282.171527 598.785602q0 15.012172 7.009774 24.017428 9.997881 12.996222 26.023145 13.006456l262.278096 0a30.24 30.24 0 0 1 22.021946-8.503827 35.54 35.54 0 0 1 11.010973-21.489817L610.51546 165.479264 639.598345 165.479264c1.330322 0 2.660644 1.023325 4.001199 2.998341L643.599544 460.687946l73.07561 0q25.010053 0 25.03052-25.020287l0-271.181021 18.020746 0q8.002398-1.023325 12.013831-7.009774T773.725501 143.457318Z"  horiz-adv-x="1024" />

    
    <glyph glyph-name="fangdajing-copy" unicode="&#58885;" d="M1008.951-53.319l-184.236 184.539c29.696 36.061 54.544 75.754 72.421 119.391 22.726 54.846 35.151 115.147 35.151 177.872 0 62.119-12.425 120.601-34.24 175.447l-0.909 2.425c-23.332 55.756-56.967 106.361-99.088 148.783l-2.119 2.121c-42.122 42.725-93.937 77.271-150.602 100.906v0c-55.149 22.727-115.147 35.757-177.872 35.758-128.177 0-244.537-52.725-328.775-136.663-43.028-42.726-77.27-93.936-101.21-150.905-22.423-55.452-35.151-115.451-35.151-177.872 0-61.815 12.727-121.51 34.544-175.751l0.607-2.119c23.634-57.27 58.18-108.785 101.209-151.207v0c43.028-43.028 93.936-77.27 150.903-100.604v0c54.847-23.029 115.147-35.151 177.873-35.151s123.027 12.121 177.872 35.151c43.635 17.878 83.633 42.423 119.391 72.118l184.539-184.539c16.667-16.364 43.332-16.364 59.695 0 16.967 16.665 16.967 43.633-0.001 60.3v0zM735.932 160.004v0 0l-0.909-0.607c-34.544-34.848-76.361-62.724-122.421-82.42-44.24-17.878-93.632-28.484-145.146-28.484-51.815 0-100.906 10.605-145.45 28.484v0c-46.363 19.696-88.179 48.179-123.027 83.027v0c-35.151 35.758-63.332 76.966-82.724 123.633l-0.607 1.515c-18.181 44.241-27.877 93.027-27.877 143.329 0 51.815 9.998 100.603 28.483 145.45 19.393 46.060 47.271 87.876 82.724 122.42 68.785 69.392 163.327 111.814 268.475 111.814 51.513 0 100.906-10.605 145.146-28.483 46.665-19.696 88.179-47.574 123.33-83.33l2.119-1.819c33.938-33.938 61.209-75.452 80.3-120.601l0.909-2.425c17.575-44.242 27.876-92.118 27.876-143.025 0-51.513-10.303-100.906-28.787-144.843-19.087-47.274-47.569-89.089-82.417-123.634v0zM350.187 705.743v0c-18.181-7.577-35.453-17.273-50.908-27.575-15.757-11.515-30.908-23.332-44.241-36.665v-0.303c-13.938-13.636-26.666-28.787-36.969-44.543v-0.303c-11.21-16.364-20.604-33.028-27.877-50.603-5.455-13.333 0.607-28.18 13.939-33.635 12.727-5.455 27.877 0.607 33.331 13.635 5.757 14.545 13.333 29.089 22.423 42.423v-0.607c9.091 13.635 19.696 25.757 30.909 37.574 11.21 11.212 23.939 21.818 37.574 30.303 12.727 9.393 27.271 16.667 41.818 22.727 12.727 6.060 19.090 20.909 13.939 33.938-6.059 13.332-20.603 18.786-33.936 13.635v0zM742.9 454.237v0c-14.241 0-25.452-11.211-25.452-25.757 0-33.028-6.667-64.846-19.393-95.755v-1.819c-12.423-28.484-30.301-55.149-54.24-79.39-23.939-23.635-51.513-41.212-80.908-53.937-30.301-12.425-63.028-19.392-95.451-19.392-14.241 0-25.757-10.908-25.757-25.15 0-13.94 11.515-25.757 25.757-25.757 39.087 0 78.482 7.879 115.451 23.028 35.151 14.544 68.483 36.363 97.268 64.847 28.484 28.483 49.696 61.815 64.847 96.966v0.908c15.453 36.969 23.332 76.057 23.332 115.451 0 14.547-11.515 25.758-25.456 25.758v0z"  horiz-adv-x="1024" />

    
    <glyph glyph-name="membermudedidingdan" unicode="&#60904;" d="M116.30086 773.090715 116.30086 773.090715 116.30086 773.090715 116.30086 773.090715zM155.787577 862.367813C150.667743 885.023077 126.220538 899.742598 101.197351 895.134748 76.110166 890.526898 59.854695 868.447615 64.91053 845.728354l196.025629-876.131526c5.055836-22.719262 29.503041-37.310787 54.590226-32.766935 25.087185 4.60785 41.278658 26.687133 36.222823 49.406394L155.787577 862.367813zM808.182374 822.881096C635.515986 807.521596 604.668988 884.895081 439.938342 882.655154 345.733404 881.375195 252.168445 858.847927 205.513961 842.080472l116.988198-522.863007c28.479074 9.2157 70.269716 17.023447 126.651884 13.247569 74.813569-4.991838 102.844658-54.014245 270.135221-42.622615 120.31609 8.191734 186.745931 73.597608 186.745931 73.597608L959.98544 877.663316C959.98544 877.663316 926.45053 833.440753 808.182374 822.881096z"  horiz-adv-x="1024" />

    
    <glyph glyph-name="ditu" unicode="&#58889;" d="M511.397647 407.491765c36.743529 0 71.077647 14.456471 96.978824 40.357647 25.901176 25.901176 40.357647 60.235294 40.357647 96.978824s-14.456471 71.077647-40.357647 96.978824c-25.901176 25.901176-60.235294 40.357647-96.978824 40.357647S440.32 667.105882 414.418824 641.204706c-25.901176-25.901176-40.357647-60.235294-40.357647-96.978824s14.456471-71.077647 40.357647-96.978824C440.32 421.345882 475.256471 407.491765 511.397647 407.491765zM440.32 615.905882c19.275294 19.275294 44.574118 29.515294 71.68 29.515294s52.404706-10.24 71.68-29.515294c19.275294-19.275294 29.515294-44.574118 29.515294-71.68S602.352941 492.423529 583.077647 473.148235l0 0c-19.275294-19.275294-44.574118-29.515294-71.68-29.515294s-52.404706 10.24-71.68 29.515294c-19.275294 19.275294-29.515294 44.574118-29.515294 71.68S421.044706 596.630588 440.32 615.905882zM511.397647 93.665882l230.701176 230.701176c61.44 61.44 95.774118 143.962353 95.774118 230.701176s-33.731765 169.261176-95.774118 230.701176C680.658824 847.811765 598.738824 881.543529 511.397647 881.543529S342.738824 847.811765 280.696471 785.769412C219.256471 724.329412 184.922353 642.409412 184.922353 555.068235s33.731765-169.261176 95.774118-230.701176L511.397647 93.665882zM306.597647 760.470588C361.411765 815.284706 434.296471 845.402353 511.397647 845.402353s150.588235-30.117647 205.402353-84.931765c54.814118-54.814118 84.931765-127.698824 84.931765-205.402353s-30.117647-150.588235-84.931765-205.402353l-205.402353-205.402353L306.597647 349.665882c-54.814118 54.814118-84.931765 127.698824-84.931765 205.402353S251.783529 705.656471 306.597647 760.470588zM1008.338824-47.284706l-103.002353 357.797647c-6.023529 20.48-27.708235 35.538824-51.2 35.538824l-57.223529 0c-10.24 0-18.070588-7.830588-18.070588-18.070588s7.830588-18.070588 18.070588-18.070588l57.223529 0c7.830588 0 15.058824-5.421176 16.263529-9.637647l103.002353-357.797647c1.204706-4.818824 1.204706-9.637647-0.602353-12.047059-1.204706-1.807059-3.614118-3.011765-7.228235-3.011765L57.223529-72.583529c-3.011765 0-5.421176 1.204706-7.228235 3.011765-1.807059 2.409412-2.409412 7.228235-0.602353 12.047059l103.002353 357.797647c1.204706 3.614118 8.432941 9.637647 16.263529 9.637647l60.235294 0c10.24 0 18.070588 7.830588 18.070588 18.070588s-7.830588 18.070588-18.070588 18.070588l-60.235294 0c-23.491765 0-45.176471-15.058824-51.2-35.538824L15.058824-47.284706c-4.818824-16.263529-2.409412-31.924706 6.625882-43.971765 8.432941-10.842353 21.082353-16.865882 36.141176-16.865882l908.348235 0c14.456471 0 27.708235 6.023529 36.141176 16.865882C1010.748235-79.209412 1013.157647-63.548235 1008.338824-47.284706z"  horiz-adv-x="1024" />

    
    <glyph glyph-name="qingtian" unicode="&#58906;" d="M503.1936 80.2304a295.424 295.424 0 0 0-196.864 75.008 293.2736 293.2736 0 0 0-23.296 415.9488 296.3968 296.3968 0 0 0 220.3648 98.2016c72.704 0 142.5408-26.624 196.864-75.008A291.7376 291.7376 0 0 0 798.208 391.168a292.1984 292.1984 0 0 0-74.7008-212.736c-12.1856-13.568-25.6-26.0608-39.8848-37.12a297.6256 297.6256 0 0 0-180.48-61.1328M503.2448 737.792a22.528 22.528 0 0 0-22.528 22.6816V838.5536a22.5792 22.5792 0 1 0 45.2608 0v-78.08a22.5792 22.5792 0 0 0-22.7328-22.6304M229.7856 624.896a22.7328 22.7328 0 0 0-16.0768 6.5536L158.3104 686.8992a22.528 22.528 0 0 0 0 31.8464 22.8352 22.8352 0 0 0 32.0512 0l55.4496-55.296a22.7328 22.7328 0 0 0 0-32 22.784 22.784 0 0 0-16.0256-6.5536M116.48 352.256H38.0416a22.528 22.528 0 0 0 0 45.056h78.4384a22.5792 22.5792 0 1 0 0-45.056M174.2848 24.3712a22.528 22.528 0 0 0-16.0256 38.5024l55.3984 55.296a22.8352 22.8352 0 0 0 32.0512 0 22.528 22.528 0 0 0 0-31.9488l-55.3984-55.296a22.3232 22.3232 0 0 0-16.0256-6.5536M503.2448-111.5648a22.5792 22.5792 0 0 0-22.528 22.6304l-0.1024 78.08a22.528 22.528 0 0 0 22.6304 22.6816 22.528 22.528 0 0 0 22.6304-22.6816v-78.08a22.6816 22.6816 0 0 0-22.6304-22.6304M832.256 24.3712a22.016 22.016 0 0 0-16.0256 6.6048l-55.4496 55.2448a22.6304 22.6304 0 0 0 32.0512 31.9488l55.3984-55.3472a22.528 22.528 0 0 0-15.9744-38.4512M968.448 352.256h-78.336a22.528 22.528 0 1 0 0 45.056h78.336a22.528 22.528 0 1 0 0-45.056M776.8576 624.896a22.6304 22.6304 0 0 0-16.0256 38.6048l55.3984 55.2448a22.7328 22.7328 0 0 0 32.0512 0 22.528 22.528 0 0 0 0-31.8464l-55.4496-55.4496a22.528 22.528 0 0 0-15.9744-6.5536"  horiz-adv-x="1024" />

    
    <glyph glyph-name="leida" unicode="&#58918;" d="M512 340c24.3 0 44 19.7 44 44 0 7.1-1.8 13.7-4.8 19.6L909 590.5C834.4 733.7 684.7 831.6 512 831.6V428c-24.3 0-44-19.7-44-44s19.7-44 44-44z m174.2 362.5c14.3 0 26-11.6 26-26 0-14.3-11.6-26-26-26-14.3 0-26 11.6-26 26s11.7 26 26 26zM472.6 628.2v29.9C338.4 638.9 235 523.3 235 384c0-152.7 124.3-277 277-277s277 124.3 277 277c0 31.9-5.5 62.6-15.5 91.2L747 461.3c8-24.4 12.4-50.3 12.4-77.3 0-136.4-111-247.4-247.4-247.4S264.6 247.6 264.6 384c0 123 90.2 225.3 208 244.2zM925.8 554.7l-35.2-18.4c19-47.1 29.6-98.5 29.6-152.3 0-225-183.1-408.1-408.1-408.1C287-24.1 103.9 159 103.9 384c0 211.7 162.1 386.3 368.7 406.2V829.7C243.9 809.7 64.4 617.9 64.4 384c0-247.2 200.4-447.6 447.6-447.6 247.2 0 447.6 200.4 447.6 447.6 0 60.5-12.1 118.1-33.8 170.7z"  horiz-adv-x="1024" />

    
    <glyph glyph-name="you" unicode="&#58896;" d="M734.7 330.3c37.1 33.6 36.6 88.9-1.2 122L307.3 825.2c-12.2 10.7-30.8 9.5-41.5-2.8-10.7-12.2-9.5-30.8 2.8-41.5L694.7 408c11.3-9.9 11.5-24.2 0.5-34.2L268.2-13c-12-10.9-12.9-29.5-2-41.5s29.5-12.9 41.5-2l427 386.8z"  horiz-adv-x="1024" />

    
    <glyph glyph-name="circle-arrow-down" unicode="&#58912;" d="M969.067 383.178c0-248.256-201.248-449.504-449.504-449.504s-449.504 201.248-449.504 449.504c0 248.256 201.248 449.504 449.504 449.504s449.504-201.248 449.504-449.504zM275.275 480.362l244.288-244 244.384 244-49.696 49.696-194.688-194.4-194.592 194.4-49.696-49.696z"  horiz-adv-x="1024" />

    
    <glyph glyph-name="huaxue" unicode="&#58899;" d="M853.8368 595.712c-82.176 0.5376-148.224 68.096-147.6864 150.784C706.7136 829.2608 773.7088 895.8208 855.808 895.232c82.176-0.4864 148.224-67.968 147.7376-150.7328-0.5376-82.7648-67.5328-149.4016-149.6832-148.8384zM1165.824-58.112c-20.608-22.144-83.5584-69.6064-172.16-69.6064H62.7968S13.312-126.976 13.312-77.952s49.4592 49.9712 49.4592 49.9712h335.6928l134.4 173.9264-131.968 27.9552c-22.1952 7.2192-38.8096 23.04-48.6912 42.5472L40.5248 136.9088A24.8064 24.8064 0 0 0 10.496 154.88a24.9088 24.9088 0 0 0 17.9456 30.2848L343.04 265.472c1.536 13.9264 6.3488 28.032 15.232 40.9856l17.1264 27.9552-235.9552-65.792a24.832 24.832 0 0 0-30.0544 17.9968 24.9344 24.9344 0 0 0 17.9456 30.2848l286.3104 79.872 62.4128 101.8368c90.9824 153.3952 242.2784 77.9264 242.2784 77.9264l258.816-134.4c24.704-11.776 35.2768-41.4976 23.6032-66.3808-8.4992-17.9968-28.928-30.0544-47.4624-30.0544-6.656 0-80.9472-2.816-96-0.512l-124.8512-31.7952-170.4192-45.2096 118.4-49.536c61.44-24.5248 64.5376-90.5472 11.6736-140.7232l-109.6192-105.9328h411.1616c32.7168 0 60.5184-4.4288 99.84 37.9648 0 0 32 29.3632 65.9968 0.1536 33.9456-29.184 6.3488-68.2752 6.3488-68.2752z"  horiz-adv-x="1177" />

    
    <glyph glyph-name="jiudian" unicode="&#58913;" d="M518.144 384m-512 0a512 512 0 1 1 1024 0 512 512 0 1 1-1024 0ZM297.472 847.872L51.2 601.6c-16.384-34.304-28.672-71.168-36.864-109.056L407.04 884.736C368.64 876.544 332.288 863.744 297.472 847.872zM515.072 896c-8.192 0-16.384 0-24.576-0.512L3.584 408.576C3.072 400.384 3.072 392.192 3.072 384c0-15.872 0.512-31.232 2.048-46.592L561.664 893.952c-15.36 1.536-31.232 2.048-46.592 2.048zM617.472 885.76L13.312 281.6c4.096-19.456 9.216-38.4 15.36-57.344L674.304 870.4c-18.432 6.144-37.376 11.264-56.832 15.36zM727.04 849.92L48.64 172.032c7.68-16.384 15.872-32.256 24.576-47.616l701.44 700.928c-15.36 9.216-31.232 17.408-47.616 24.576zM814.592 799.232L99.84 83.968c10.24-13.824 20.992-27.136 32.256-39.936L855.04 766.976c-12.8 11.264-26.112 22.016-40.448 32.256zM891.904 730.624L168.448 7.168c12.8-11.776 25.6-22.528 39.424-32.768l716.8 716.8c-10.24 13.824-21.504 27.136-32.768 39.424zM951.296 651.776L247.296-52.736c15.36-9.216 30.72-17.92 47.104-25.6L976.896 604.672c-7.68 16.384-15.872 31.744-25.6 47.104zM998.4 553.472L345.088-99.328c18.432-6.656 36.864-11.776 56.32-16.384L1014.272 497.664c-4.096 18.944-9.728 37.888-15.872 55.808zM1027.072 384c0 20.48-1.024 40.96-3.584 60.928L454.144-124.416c19.968-2.56 40.448-3.584 60.928-3.584h7.68l503.808 503.808c0.512 3.072 0.512 5.632 0.512 8.192zM1019.392 296.448l-417.28-417.28c34.816 6.144 68.608 15.36 100.352 28.16l288.256 288.256c13.312 32.256 23.04 66.048 28.672 100.864zM518.144 384m-452.096 0a452.096 452.096 0 1 1 904.192 0 452.096 452.096 0 1 1-904.192 0ZM801.792 238.08H768V499.712c0 18.944-10.24 38.912-29.184 38.912h-80.896c-12.8 0-28.672-14.336-28.672-27.136v-272.896h-23.04V638.976c0 18.944-10.24 38.912-29.184 38.912H322.56c-18.944 0-39.936-19.968-39.936-38.912v-400.384h-33.792c-0.512 0-1.024-0.512-1.024-1.024v-89.6c0-0.512 0.512-1.024 1.024-1.024h552.96c0.512 0 1.024 0.512 1.024 1.024v89.6s-0.512 0.512-1.024 0.512zM419.84 377.344c0-12.8-10.24-23.04-23.04-23.04h-45.568c-12.8 0-23.04 10.24-23.04 23.04v45.568c0 12.8 10.24 23.04 23.04 23.04h45.568c12.8 0 23.04-10.24 23.04-23.04v-45.568z m0 139.264c0-12.8-10.24-23.04-23.04-23.04h-45.568c-12.8 0-23.04 10.24-23.04 23.04v45.568c0 12.8 10.24 23.04 23.04 23.04h45.568c12.8 0 23.04-10.24 23.04-23.04v-45.568z m138.752-139.264c0-12.8-10.24-23.04-23.04-23.04h-45.568c-12.8 0-23.04 10.24-23.04 23.04v45.568c0 12.8 10.24 23.04 23.04 23.04h45.568c12.8 0 23.04-10.24 23.04-23.04v-45.568z m0 139.264c0-12.8-10.24-23.04-23.04-23.04h-45.568c-12.8 0-23.04 10.24-23.04 23.04v45.568c0 12.8 10.24 23.04 23.04 23.04h45.568c12.8 0 23.04-10.24 23.04-23.04v-45.568z m174.592-208.384c0-12.8-10.24-23.04-23.04-23.04h-23.04c-12.8 0-23.04 10.24-23.04 23.04v23.04c0 12.8 10.24 23.04 23.04 23.04h23.04c12.8 0 23.04-10.24 23.04-23.04v-23.04z m0 115.2c0-12.8-10.24-23.04-23.04-23.04h-23.04c-12.8 0-23.04 10.24-23.04 23.04v23.04c0 12.8 10.24 23.04 23.04 23.04h23.04c12.8 0 23.04-10.24 23.04-23.04v-23.04z"  horiz-adv-x="1030" />

    
    <glyph glyph-name="lishijilu" unicode="&#58894;" d="M522.974 741.905V831.158l-183.72-105.725 183.72-105.725v93.466c206.512-0.622 374.364-168.3 374.364-374.295 0-206.39-168.473-374.329-375.537-374.329-207.083 0-375.555 167.938-375.555 374.33H117.41c0-222.243 181.405-403.062 404.39-403.062 222.969 0 404.374 180.819 404.374 403.061 0.017 221.862-180.768 402.405-403.2 403.026z m-32.91-217.717V310.7l185.222-182.114 20.271 20.495L518.9 322.701V524.187h-28.836z"  horiz-adv-x="1024" />

    
    <glyph glyph-name="fanhui" unicode="&#58978;" d="M428.561148 383.048325l318.653456 325.902558c27.516704 28.078499 27.516704 73.606415 0 101.685937-27.39186 28.078499-71.91796 28.078499-99.371218 0l-352.754113-360.749204a70.194712 70.194712 0 0 1-18.373462-13.443173c-14.409175-14.688537-21.234627-34.160008-20.50194-53.387931-0.733711-19.328207 6.092765-38.891775 20.50194-53.614082 5.875824-6.02318 12.536524-10.745738 19.641339-14.190187l351.486236-358.031303c27.453259-27.892257 71.980381-27.892257 99.371218 0 27.516704 27.953655 27.516704 73.293283 0 101.18554L428.561148 383.048325z"  horiz-adv-x="1024" />

    
    <glyph glyph-name="shouye" unicode="&#58888;" d="M701.828861-125.752916v303.411936H511.219135v-304.062166c-5.836716 0-11.023201-0.650231-15.559455-0.650231H225.962457c-31.11891 0-51.864851 20.09571-51.864851 52.515081a35868.942174 35868.942174 0 0 0 0 374.082275c0 6.481826 5.186485 14.909225 9.72274 19.450599C265.508766 390.310027 347.197185 461.625477 428.885605 533.591157c54.460653 47.328596 108.916186 95.302303 163.376839 142.630899 4.536254 3.891144 8.427398 7.132057 13.613883 11.668311 32.414252-28.528228 64.833623-56.406225 97.247875-84.929333 106.325504-93.356731 212.651007-186.718582 319.621622-279.425082 11.668311-9.72274 16.209686-20.09571 16.209685-36.305395a32353.273295 32353.273295 0 0 1 0-355.276787c0-21.396171-5.186485-40.196539-22.691512-51.86485-6.481826-4.536254-14.909225-7.782288-22.041281-7.782288-95.302303-0.650231-191.254836 0-286.55714 0-1.950692 0.645111-3.246033 1.295341-5.836715 1.940452z m143.276009 839.575708V856.453691c0 29.173338 6.481826 36.305395 34.359824 36.305396h129.017016c22.041282 0 29.823569-8.427398 29.823569-33.064482 0-98.543216 0.650231-197.736663 0-296.279879 0-15.559455 3.891144-25.282195 14.909224-35.010054 47.328596-40.196539 93.356731-81.68842 140.035097-122.53007 22.691512-20.09571 23.341743-29.823569 3.891144-53.810422-11.668311-14.264114-22.691512-29.173338-35.010055-44.087683-14.264114-18.155258-26.582656-18.800368-43.437452-3.891144-165.322411 146.522043-329.994592 292.393855-495.317003 438.910778-5.836716 5.186485-11.668311 9.72274-18.155257 15.559455-36.955626-33.064482-73.906132-65.478734-110.861758-97.898105-134.198381-118.638926-267.751651-237.282971-401.955152-355.927017-18.155258-16.209686-29.173338-14.909225-44.732794 3.891144-12.318542 15.559455-25.282195 31.769141-37.600736 47.328596-14.264114 18.800368-13.613883 30.46868 3.891143 46.033255C88.518043 468.112423 163.724636 534.886498 238.280999 601.015463c99.843677 88.170246 199.682235 175.695381 299.525912 264.515857 45.383024 40.196539 89.465587 40.196539 134.848611 0 53.810422-47.973707 107.620845-95.302303 161.431268-143.281129 2.590683-1.945572 5.831596-4.536254 11.01808-8.427399z"  horiz-adv-x="1211" />

    
    <glyph glyph-name="jiangpai" unicode="&#58886;" d="M512-106.666667a366.933333 366.933333 0 1 0 366.933333 366.933334A367.146667 367.146667 0 0 0 512-106.666667zM512 605.653333A345.6 345.6 0 1 0 166.4 260.266667a345.813333 345.813333 0 0 0 345.6 345.6m0 42.666666a388.266667 388.266667 0 1 1 388.266667-388.266666 388.266667 388.266667 0 0 1-388.266667 388.266666zM157.866667 788.266667a25.813333 25.813333 0 0 0 17.706666 31.786666L363.306667 874.666667a25.813333 25.813333 0 0 0 31.786666-17.706667l49.92-174.72a426.666667 426.666667 0 0 1-224.853333-111.786667zM370.346667 853.333333a4.48 4.48 0 0 0 4.266666-3.2l42.666667-152.106666A448 448 0 0 1 230.4 608.64L178.346667 794.026667a4.48 4.48 0 0 0 2.986666 5.546666L369.066667 853.333333h1.28m0 42.666667a47.146667 47.146667 0 0 1-11.946667-1.92L169.813333 840.533333A47.146667 47.146667 0 0 1 137.386667 782.293333l67.626666-236.373333a9.6 9.6 0 0 1 9.173334-7.04 9.813333 9.813333 0 0 1 7.04 2.986667A403.413333 403.413333 0 0 0 461.013333 661.333333a9.6 9.6 0 0 1 8.106667 12.16L415.573333 861.866667A47.146667 47.146667 0 0 1 370.346667 896zM803.626667 570.453333a426.666667 426.666667 0 0 1-224.853334 110.72l49.92 174.72a25.813333 25.813333 0 0 0 32 18.773334L849.066667 820.053333a25.813333 25.813333 0 0 0 17.706666-31.786666zM653.44 853.333333h1.28l187.52-53.546666a4.48 4.48 0 0 0 2.986667-5.546667l-52.906667-185.386667a448 448 0 0 1-186.666667 89.173334l42.666667 152.106666a4.48 4.48 0 0 0 4.266667 3.2m0 42.666667a47.146667 47.146667 0 0 1-45.226667-34.133333l-52.693333-187.733334a9.6 9.6 0 0 1 8.106666-12.16 403.413333 403.413333 0 0 0 239.573334-120.106666 9.813333 9.813333 0 0 1 7.04-2.986667 9.6 9.6 0 0 1 9.173333 7.04l67.84 236.373333a47.146667 47.146667 0 0 1-32.426667 58.24L666.453333 894.08a47.146667 47.146667 0 0 1-13.013333 1.92zM512 138.666667l-115.2-60.373334 21.76 128.213334-93.013333 90.666666 128.64 18.986667 57.6 116.693333 57.813333-116.693333 128.64-18.56-93.013333-91.093333 21.973333-128.213334h-0.213333L512 138.666667zM512 384l33.493333-68.053333 10.026667-20.053334 21.333333-3.2 75.093334-10.88-54.4-52.906666-16-15.573334 3.84-21.333333 12.8-74.666667-67.2 35.2-19.84 10.453334-19.84-10.453334-67.2-35.2 12.8 74.666667 3.84 21.333333-16 15.573334-53.546667 53.76 75.093333 10.88 21.333334 3.2 10.026666 20.053333L512 384m0 69.333333a21.333333 21.333333 0 0 1-19.2-11.946666l-52.48-106.666667-117.546667-17.066667a21.333333 21.333333 0 0 1-11.946666-36.693333l85.333333-82.986667-20.053333-117.12a21.333333 21.333333 0 0 1 31.146666-22.613333l105.173334 55.253333 105.173333-55.253333a21.333333 21.333333 0 0 1 31.146667 22.613333l-20.053334 117.12 85.333334 82.986667a21.333333 21.333333 0 0 1-11.946667 36.693333l-117.546667 17.066667-52.48 106.666667a21.333333 21.333333 0 0 1-19.2 11.946666z"  horiz-adv-x="1024" />

    
    <glyph glyph-name="fanhuidingbu" unicode="&#58907;" d="M512 384m-512 0a512 512 0 1 1 1024 0 512 512 0 1 1-1024 0ZM518.336 601.6512l236.7872-259.008H281.5488l236.7872 259.008zM449.9072 365.7728h137.8816V166.4H449.9072V365.7728zM256 627.2h512v-38.4H256z"  horiz-adv-x="1024" />

    
    <glyph glyph-name="dingwei" unicode="&#58880;" d="M614.035456 152.98047999999994l-17.227776-36.404224c92.55424-12.097536 148.478976-42.637312 148.478976-65.246208 0-28.771328-90.273792-70.569984-231.701504-70.569984-141.428736 0-231.650304 41.798656-231.650304 70.569984 0 26.728448 77.940736 64.587776 202.35264 69.855232l29.227008-60.908544L714.418176 478.74048l-0.2304 0c19.808256 35.221504 31.328256 75.978752 31.328256 119.561216 0 132.042752-103.860224 239.105024-231.897088 239.105024-128.052224 0-231.914496-107.062272-231.914496-239.105024 0-43.583488 11.521024-84.340736 31.223808-119.561216l-0.159744 0 153.549824-320.05632c-116.478976-7.744512-221.668352-44.296192-221.668352-107.353088 0-71.553024 135.279616-108.99456 268.934144-108.99456 133.653504 0 268.949504 37.441536 268.949504 108.99456C782.533632 104.58623999999998 707.525632 138.91379199999994 614.035456 152.98047999999994zM416.187392 627.744768c0 55.48032 43.609088 100.48512 97.395712 100.48512 53.85728 0 97.446912-45.0048 97.446912-100.48512 0-55.445504-43.589632-100.412416-97.446912-100.412416C459.79648 527.3344 416.187392 572.300288 416.187392 627.744768z"  horiz-adv-x="1024" />

    
    <glyph glyph-name="arrow-right" unicode="&#58881;" d="M403.1136140122835 575.2205455482763l33.58635558470269 34.76547326499713 235.1050858123926-233.92656485157204-235.1050858123926-233.92656485157204-33.58635558470269 34.76547326499713 197.98316734522814 199.16168830604875z"  horiz-adv-x="1024" />

    
    <glyph glyph-name="mudedichanpin" unicode="&#58883;" d="M507.400008125 85.95969656249997h-0.12a27.959953125 27.959953125 0 0 0-21.479964374999998 10.199983125c-6.5999887500000005 8.079986250000001-163.079728125 198.7196690625-229.7996175 308.67948562500004a297.399504375 297.399504375 0 0 0-46.9599215625 160.799731875A296.3995059375 296.3995059375 0 0 0 296.400359375 776.5585453125 296.3995059375 296.3995059375 0 0 0 507.400008125 863.9983996875001a296.3995059375 296.3995059375 0 0 0 210.9996478125-87.3998540625 296.3995059375 296.3995059375 0 0 0 87.3998540625-210.99964875 298.6795021875 298.6795021875 0 0 0-36.719938125-143.3997609375c-15.439974375-35.079941250000005-60.479898750000004-100.55983218749999-133.9597771875-194.5996753125a5570.790715312501 5570.790715312501 0 0 0-106.2798225-131.639780625 27.959953125 27.959953125 0 0 0-21.4399640625-9.9999834375z m0 722.1187968749999A242.75959500000002 242.75959500000002 0 0 1 264.9204115625 565.598896875a241.5995971875 241.5995971875 0 0 1 38.7199359375-131.4797803125c50.3199159375-83.03986125 158.11973625000002-219.199635 203.9996596875-276.15954 65.799890625 79.9998665625 187.359688125 233.1596109375 210.63964875 287.599520625a27.839954062500002 27.839954062500002 0 0 0 1.2799978125 2.559995625c19.839966562500003 35.719940625 30.3199490625 76.399873125 30.31995 117.4798040625a242.75959500000002 242.75959500000002 0 0 1-242.479595625 242.4795965625z m-0.7199990625-377.51937093749996A135.1997746875 135.1997746875 0 0 0 371.600234375 565.598896875a135.1997746875 135.1997746875 0 0 0 135.0797746875 135.079775625 135.1997746875 135.1997746875 0 0 0 135.0797746875-135.079775625 135.1997746875 135.1997746875 0 0 0-135.0797746875-135.039774375z m0 214.23964312500001c-43.6399275 0-79.1998678125-35.5199409375-79.1998678125-79.19986875000001 0-43.5999271875 35.5599403125-79.1598684375 79.1998678125-79.15986749999999s79.1998678125 35.5199409375 79.1998678125 79.1998678125c0 43.5999271875-35.5599403125 79.1598684375-79.1998678125 79.1598684375zM507.280008125-94.68000187500002c-102.5598290625 0-199.3996678125 20.15996625-272.63954625 56.7999046875-78.9198684375 39.4399340625-122.39979562500001 93.99984375-122.39979562500001 153.519744375 0 56.799905625 39.99993375 109.51981781250001 112.59981281249999 148.47975281249998a25.6399575 25.6399575 0 0 0 24.23995875-45.1999246875c-55.1199084375-29.5999509375-85.51985718750001-66.2798896875-85.51985718750001-103.279828125 0-38.51993625 34.2799425-77.75987062499999 93.99984375-107.6398209375 66.2798896875-33.1199446875 154.9597415625-51.399914062499995 249.71958374999997-51.399914062499995 94.7998415625 0 183.4396940625 18.279969375 249.71958374999997 51.399914062499995 59.759900625 29.8799503125 93.99984375 69.1198846875 93.99984281249999 107.6398209375 0 36.91993875-30.279949687500004 73.59987749999999-85.3198575 103.15982812499999A25.6399575 25.6399575 0 1 0 789.9995365625 263.99940000000004c72.39987937500001-38.959935 112.3198125-91.639846875 112.3198125-148.3597528125 0-59.5599009375-43.479927187499996-114.0798103125-122.39979562500001-153.519744375-73.199878125-36.639939375000004-170.039716875-56.799905625-272.6395453125-56.7999046875zM436.80012500000004 2.51983593749992c-95.1598415625 0-175.7997065625 33.59994375-200.679665625 83.5998609375a25.6399575 25.6399575 0 1 0 45.919923749999995 22.87996125c13.3199775-26.7999553125 72.0798796875-55.199908125 154.7997421875-55.199908125a25.6399575 25.6399575 0 1 0 0-51.2799140625z"  horiz-adv-x="1024" />

    


  </font>
</defs>
</svg>
